<svg width="116" height="22" viewBox="0 0 116 22" fill="none" xmlns="http://www.w3.org/2000/svg">
<g clip-path="url(#clip0_9027_49342)">
<path d="M10.206 21.206C15.8426 21.206 20.412 16.6366 20.412 11C20.412 5.36339 15.8426 0.794006 10.206 0.794006C4.56939 0.794006 0 5.36339 0 11C0 16.6366 4.56939 21.206 10.206 21.206Z" fill="#40E0D0"/>
<path d="M16.5188 8.58169C18.6694 8.58169 20.4127 6.83836 20.4127 4.68785C20.4127 2.53734 18.6694 0.794006 16.5188 0.794006C14.3683 0.794006 12.625 2.53734 12.625 4.68785C12.625 6.83836 14.3683 8.58169 16.5188 8.58169Z" fill="#F2F2F2"/>
<mask id="mask0_9027_49342" style="mask-type:alpha" maskUnits="userSpaceOnUse" x="0" y="0" width="21" height="22">
<path d="M10.206 21.206C15.8426 21.206 20.412 16.6366 20.412 11C20.412 5.36339 15.8426 0.794006 10.206 0.794006C4.56939 0.794006 0 5.36339 0 11C0 16.6366 4.56939 21.206 10.206 21.206Z" fill="#40E0D0"/>
</mask>
<g mask="url(#mask0_9027_49342)">
<path d="M9.03873 7.9036C8.0838 8.86426 7.39686 9.60153 7.32985 9.73555C7.09531 10.2047 7.02272 10.5845 7.05065 11.21C7.08416 11.8747 7.23491 12.355 7.54766 12.813L7.72639 13.0699L5.27476 15.5218L2.73828 18.0586L2.91741 18.2697L3.12484 18.4677L3.32754 18.6799L3.54804 18.8684L6.08452 16.3317L8.53615 13.8798L8.92707 14.0808C9.4408 14.3489 9.87085 14.4606 10.446 14.4606C10.9989 14.4606 11.5239 14.321 11.898 14.0697C12.0377 13.9747 12.8362 13.2152 13.6739 12.3774L15.1929 10.8526L14.8299 10.4896L14.4669 10.1321L12.9424 11.6457C11.5462 13.0308 11.401 13.1649 11.1218 13.2542C9.85965 13.6619 8.2569 12.489 8.16754 11.0816C8.15081 10.7856 8.16754 10.5901 8.24013 10.3723C8.32949 10.0986 8.46909 9.94221 9.85407 8.54593L11.3675 7.02673L11.0045 6.66369L10.6415 6.30066L9.03873 7.9036Z" fill="#F2F2F2"/>
</g>
<path d="M29.0512 10.7162H34.443V12.0007H29.0512V10.7162ZM29.2006 16.2275H27.707V5.77255H35.0852V7.07195H29.2006V16.2275ZM38.3825 16.2275V5.77255H39.8761V16.2275H38.3825ZM44.201 16.2275V5.77255H45.6945V14.9281H51.3551V16.2275H44.201ZM52.6809 16.2275L57.4155 5.77255H58.8941L63.6436 16.2275H62.0754L57.8486 6.60895H58.446L54.2193 16.2275H52.6809ZM54.6972 13.6138L55.1005 12.4189H60.9851L61.4182 13.6138H54.6972ZM66.3978 16.2275V5.77255H67.6225L72.3123 13.6735H71.6551L76.2851 5.77255H77.5099L77.5248 16.2275H76.091L76.076 8.02783H76.4196L72.2973 14.958H71.6103L67.4582 8.02783H67.8316V16.2275H66.3978ZM83.2168 10.2831H88.5936V11.5526H83.2168V10.2831ZM83.3512 14.9281H89.4449V16.2275H81.8576V5.77255H89.2358V7.07195H83.3512V14.9281ZM93.0578 16.2275V5.77255H94.2826L101.198 14.3605H100.556V5.77255H102.049V16.2275H100.824L93.9092 7.63951H94.5514V16.2275H93.0578ZM108.45 16.2275V7.07195H104.865V5.77255H113.513V7.07195H109.928V16.2275H108.45Z" fill="#40E0D0"/>
</g>
<defs>
<clipPath id="clip0_9027_49342">
<rect width="116" height="20.412" fill="white" transform="translate(0 0.794006)"/>
</clipPath>
</defs>
</svg>
