<svg width="31" height="32" viewBox="0 0 31 32" fill="none" xmlns="http://www.w3.org/2000/svg">
<g id="pajamas:warning-solid">
<path id="Vector" fill-rule="evenodd" clip-rule="evenodd" d="M12.1771 4.32662C13.6786 1.81756 17.3192 1.81756 18.8227 4.32662L30.4341 23.6958C31.9822 26.2785 30.1222 29.5626 27.1094 29.5626H3.89038C0.877571 29.5626 -0.982429 26.2785 0.565634 23.6958L12.1771 4.32662ZM15.4999 10.1876C15.8853 10.1876 16.2549 10.3407 16.5274 10.6132C16.7999 10.8857 16.953 11.2553 16.953 11.6407V17.4532C16.953 17.8386 16.7999 18.2082 16.5274 18.4807C16.2549 18.7532 15.8853 18.9063 15.4999 18.9063C15.1145 18.9063 14.7449 18.7532 14.4724 18.4807C14.1999 18.2082 14.0468 17.8386 14.0468 17.4532V11.6407C14.0468 11.2553 14.1999 10.8857 14.4724 10.6132C14.7449 10.3407 15.1145 10.1876 15.4999 10.1876ZM17.4374 22.7813C17.4374 23.2952 17.2333 23.788 16.8699 24.1513C16.5066 24.5147 16.0137 24.7188 15.4999 24.7188C14.986 24.7188 14.4932 24.5147 14.1299 24.1513C13.7665 23.788 13.5624 23.2952 13.5624 22.7813C13.5624 22.2675 13.7665 21.7746 14.1299 21.4113C14.4932 21.0479 14.986 20.8438 15.4999 20.8438C16.0137 20.8438 16.5066 21.0479 16.8699 21.4113C17.2333 21.7746 17.4374 22.2675 17.4374 22.7813Z" fill="#FF5353"/>
</g>
</svg>
